<?xml version="1.0" encoding="UTF-8" standalone="no"?>
<!-- Created with Inkscape (http://www.inkscape.org/) -->

<svg
   width="24"
   height="24"
   viewBox="0 0 6.3499999 6.35"
   version="1.1"
   id="svg1"
   inkscape:version="1.3.2 (091e20e, 2023-11-25, custom)"
   sodipodi:docname="Job Category Icons.svg"
   inkscape:export-filename="farmer.svg"
   inkscape:export-xdpi="300"
   inkscape:export-ydpi="300"
   xmlns:inkscape="http://www.inkscape.org/namespaces/inkscape"
   xmlns:sodipodi="http://sodipodi.sourceforge.net/DTD/sodipodi-0.dtd"
   xmlns="http://www.w3.org/2000/svg"
   xmlns:svg="http://www.w3.org/2000/svg">
  <sodipodi:namedview
     id="namedview1"
     pagecolor="#ffffff"
     bordercolor="#000000"
     borderopacity="0.25"
     inkscape:showpageshadow="2"
     inkscape:pageopacity="0.0"
     inkscape:pagecheckerboard="0"
     inkscape:deskcolor="#d1d1d1"
     inkscape:document-units="px"
     showgrid="true"
     inkscape:zoom="43.208333"
     inkscape:cx="12"
     inkscape:cy="8.2854388"
     inkscape:window-width="2021"
     inkscape:window-height="1250"
     inkscape:window-x="177"
     inkscape:window-y="51"
     inkscape:window-maximized="0"
     inkscape:current-layer="svg1">
    <inkscape:grid
       id="grid1"
       units="px"
       originx="0"
       originy="0"
       spacingx="0.26458333"
       spacingy="0.26458333"
       empcolor="#0099e5"
       empopacity="0.30196078"
       color="#0099e5"
       opacity="0.14901961"
       empspacing="4"
       dotted="false"
       gridanglex="30"
       gridanglez="30"
       visible="true" />
  </sodipodi:namedview>
  <defs
     id="defs1" />
  <path
     id="text5"
     style="font-size:5.33333px;line-height:0.95;font-family:'Franklin Gothic Book';-inkscape-font-specification:'Franklin Gothic Book, ';text-align:justify;white-space:pre;display:none;fill:#0158c9;stroke-width:2.08525;stroke-linecap:square;stroke-linejoin:round;stroke-dashoffset:3.77954"
     inkscape:label="Beekeeper"
     d="m 3.1695702,3.500607e-6 c -0.028566,0 -0.057128,0.00148144939 -0.085068,0.00344508939 C 2.9036319,0.01616004 2.7359616,0.06968091 2.5813275,0.1646786 2.4046464,0.27634046 2.2609779,0.42578685 2.1505529,0.61322883 2.1074197,0.68769252 2.0727361,0.76573304 2.0455743,0.84680558 h -0.06335 c -0.1527563,0 -0.263705,-0.0750687 -0.3336391,-0.22461952 L 1.5737733,0.47887048 C 1.5608978,0.45294526 1.541629,0.4350951 1.515854,0.42512706 c -0.025776,-0.009959 -0.0509,-0.008448 -0.074812,0.005512 -0.025776,0.0119603 -0.042123,0.0320259 -0.049472,0.0599446 -0.00921,0.0279265 -0.00802,0.0561535 0.00302,0.0840601 L 1.468798,0.7207154 c 0.049693,0.10568413 0.1203517,0.18891419 0.2123732,0.24873574 0.090181,0.0618142 0.1906344,0.092328 0.3010596,0.092328 h 0.010854 c -0.00891,0.057356 -0.014354,0.1161421 -0.016291,0.1763886 -0.00606,0.00687 -0.011523,0.013788 -0.017496,0.02067 C 1.7267514,1.4930293 1.5628208,1.7741976 1.4687946,2.1028841 L 0.36712159,2.9882712 c -0.001832,0.002 -0.004153,0.0035 -0.007844,0.00551 -0.00369,0.004 -0.006614,0.00621 -0.008447,0.00621 l -0.00543,0.00621 C 0.23867473,3.0959028 0.15397626,3.2082252 0.09140087,3.3438166 0.02698497,3.4794097 -0.00338358,3.6273315 2.9864541e-4,3.7868546 0.00213099,3.9603358 0.04242626,4.1179456 0.12156716,4.2595206 c 0.0791394,0.1415748 0.1842669,0.25532 0.31493611,0.3410634 0.13066922,0.087738 0.27608686,0.1331268 0.43620462,0.1371143 0.11778668,0.00399 0.22873501,-0.016072 0.33363921,-0.059945 0.104904,-0.043868 0.1983607,-0.1041329 0.2793399,-0.1819005 0.058892,0.1774692 0.1435724,0.3395781 0.2540002,0.487135 0.1048472,0.1444022 0.2297494,0.2660835 0.374062,0.3658683 0.00329,0.00365 0.00635,0.00741 0.00965,0.011025 0.2795547,0.3068866 0.9574783,0.7537848 0.9574783,0.7537848 l 0.038613,0.1915469 c 0.00552,0.029912 0.023043,0.044786 0.052489,0.044786 9.058e-4,0 0.00152,-6.606e-4 0.00241,-6.889e-4 0.0011,4.36e-5 0.00189,6.889e-4 0.00302,6.889e-4 0.029446,0 0.046967,-0.014873 0.052489,-0.044786 l 0.03922,-0.1915469 c 0,0 0.6779237,-0.4468982 0.9574783,-0.7537848 0.00331,-0.00362 0.00639,-0.00738 0.00965,-0.011025 C 4.3805581,5.2490591 4.505461,5.1273778 4.6103074,4.9829758 4.7207348,4.8354189 4.8054162,4.6733098 4.8643075,4.4958408 4.9452865,4.5736068 5.0381402,4.6338734 5.143044,4.6777411 5.247948,4.7216141 5.3595,4.7416731 5.4772868,4.7376861 5.6374095,4.7337017 5.7828273,4.68831 5.9134965,4.6005711 6.0441657,4.514828 6.1492931,4.4010829 6.2284325,4.2595079 6.3075734,4.1179331 6.3478681,3.9603232 6.3497011,3.7868421 6.3533834,3.627319 6.3230148,3.4793971 6.2585989,3.3438041 6.1960235,3.2082126 6.111325,3.0958893 6.0045986,3.0061856 l -0.00543,-0.00621 c -0.00184,0 -0.00475,-0.00219 -0.00844,-0.00621 -0.00369,-0.00201 -0.00662,-0.00352 -0.00844,-0.00551 L 4.8812059,2.1028841 C 4.7871795,1.7741976 4.6232492,1.4930293 4.3907019,1.258838 4.3847219,1.251958 4.3792599,1.245028 4.3732059,1.238167 4.3712659,1.17792 4.3658359,1.1191348 4.3569159,1.0617786 h 0.010854 c 0.1104254,0 0.2102759,-0.030515 0.3004563,-0.092328 C 4.7602492,0.9096284 4.8315124,0.82639877 4.8812028,0.72071515 L 4.9554108,0.5746435 C 4.9664588,0.5467368 4.9676508,0.51851 4.9584308,0.4905834 4.9510708,0.4626648 4.9341288,0.4425988 4.9083558,0.4306388 4.8844428,0.4166789 4.8599238,0.4151666 4.8341468,0.4251268 4.8083728,0.4350948 4.7891018,0.4529449 4.7762278,0.4788701 L 4.701415,0.62218606 C 4.6314806,0.77173689 4.520532,0.84680558 4.3677756,0.84680558 H 4.304426 C 4.277265,0.76573304 4.2419776,0.68769252 4.1988444,0.61322883 4.0884193,0.42578685 3.9453541,0.27634046 3.768673,0.1646786 3.6141985,0.06977896 3.4461549,0.01623177 3.2654991,0.00344859 3.2373755,0.00145769 3.2091875,3.500607e-6 3.18043,3.500607e-6 c -0.00184,0 -0.00359,-7.8763657e-6 -0.00543,0 -0.00184,-7.8763657e-6 -0.00359,0 -0.00543,0 z M 2.2826813,1.5289327 c 0.048584,0.039297 0.103511,0.059255 0.1659146,0.059255 h 0.00604 1.4407423 0.00543 c 0.062403,0 0.1179336,-0.019957 0.1665179,-0.059255 0.2242919,0.2028258 0.3744376,0.4558967 0.4494778,0.759297 H 1.8332036 C 1.9082437,1.9848294 2.0583893,1.7317585 2.2826813,1.5289327 Z M 1.7861441,3.3651636 h 2.7771091 v 0.5381227 c 0,0.057825 -0.0035,0.1165673 -0.010854,0.1763882 H 1.7976072 C 1.7902404,4.0198535 1.7861441,3.9611119 1.7861441,3.9032863 Z M 2.5457312,5.1566083 H 3.8042691 L 3.1750003,5.6513228 Z"
     sodipodi:nodetypes="sscccsccccccccsccccccccccccccccccccscscccccccccsccccccccccsccccccccsccccscsscsccsccccccsccsccccc" />
  <path
     id="text6"
     style="font-size:5.33333px;line-height:0.95;font-family:'Franklin Gothic Book';-inkscape-font-specification:'Franklin Gothic Book, ';text-align:justify;white-space:pre;display:none;fill:#0158c9;stroke-width:2.32293;stroke-linecap:square;stroke-linejoin:round;stroke-dashoffset:3.77954"
     inkscape:label="Supervisor"
     d="m 3.1594206,0 c -0.8009581,0 -1.450263,0.77536128 -1.450263,1.7318179 0,0.9564566 0.6493049,1.7318179 1.450263,1.7318179 0.8009581,-10e-8 1.4502629,-0.7753613 1.4502629,-1.7318179 C 4.6096835,0.77536133 3.9603787,6.595056e-8 3.1594206,0 Z M 1.9992101,3.6034441 C 1.4978617,3.8175974 0.2588946,4.1530933 0.2588946,4.1530933 0.2588946,4.1530933 0,5.0075736 0,5.4451918 v 0.6402245 c 0,0.1006285 0,0.2645833 0,0.2645833 0,0 0.13258671,0 0.26458332,0 H 6.0854164 c 0.1339797,0 0.2310886,0.025157 0.2645833,0 0.033495,-0.025157 1e-7,-0.1639564 0,-0.2645833 l -7e-7,-0.6430432 C 6.3475571,5.0159281 6.0599472,4.1530933 6.0599472,4.1530933 c 0,0 -1.256087,-0.3317718 -1.7403155,-0.5496492 z m 0.1931796,0.1020375 c 0.068475,0.076349 0.1529557,0.1416143 0.2532295,0.1956191 L 2.1974884,6.1431054 h -0.00397 L 1.4712238,4.9237297 C 1.4345374,4.8473813 1.455279,4.7802033 1.5335398,4.7224735 L 1.8927066,4.4541319 c 0.019588,-0.016754 0.023575,-0.036278 0.01133,-0.058629 -0.00977,-0.022351 -0.030513,-0.033261 -0.062315,-0.033261 H 1.5629983 c -0.026912,0 -0.049174,-0.00861 -0.066281,-0.025368 -0.014693,-0.018622 -0.015645,-0.03719 -0.0034,-0.05581 l 0.5818049,-0.5417568 0.00397,-0.00282 c 0.031795,-0.00933 0.069282,-0.019844 0.1133018,-0.031006 z m 1.9618206,0.011275 c 0.029346,0.0093 0.08101,0.025368 0.08101,0.025368 l 0.6214604,0.5276633 c 0.00976,0.018622 0.00786,0.03719 -0.00679,0.05581 -0.014669,0.018617 -0.035977,0.028188 -0.062883,0.028188 H 4.5082784 c -0.031775,0 -0.05347,0.010911 -0.065715,0.033261 -0.012211,0.020488 -0.00728,0.039617 0.01473,0.056374 l 0.3631324,0.2677778 c 0.075826,0.055865 0.096568,0.1239995 0.062316,0.2040748 L 4.1564765,6.1431054 3.8607587,3.9292873 C 3.9781478,3.8752849 4.0759495,3.804281 4.1542103,3.7167566 Z M 2.7877907,4.0409085 h 0.7630876 c -0.029346,0.055868 -0.078247,0.1025645 -0.1467258,0.1398081 -0.066029,0.035381 -0.1415729,0.053956 -0.2271701,0.05581 h -0.00397 -0.0034 c -0.085592,0 -0.1626567,-0.017611 -0.2311357,-0.052992 -0.068462,-0.037246 -0.1188834,-0.0849 -0.150686,-0.1426261 z M 3.7565211,4.177898 V 4.5606794 L 3.470434,4.3842277 C 3.5927137,4.337674 3.6880453,4.2691465 3.7565211,4.177898 Z m -1.166442,0.00845 c 0.068475,0.087524 0.1638068,0.1531819 0.286087,0.1978737 l -0.286087,0.1764538 z m 0.8508964,0.4385942 0.2056428,0.1257145 c 0.075812,0.044684 0.1572559,0.050825 0.2452984,0.019168 v 1.17766 H 3.6721112 L 3.3565657,4.7613718 Z m -0.5393165,0.00282 0.08441,0.1336071 -0.3189444,1.1861121 h -0.209042 v -1.177653 c 0.085594,0.031665 0.1660842,0.024571 0.2418994,-0.021986 z"
     sodipodi:nodetypes="sssssccsscsscsccccccccccccssccccccccccssccccccccccccscccccccccccccccccccccccc" />
  <path
     id="text7"
     style="font-size:5.33333px;line-height:0.95;font-family:'Franklin Gothic Book';-inkscape-font-specification:'Franklin Gothic Book, ';text-align:justify;white-space:pre;display:none;fill:#0158c9;stroke-width:2.33912;stroke-linecap:square;stroke-linejoin:round;stroke-dashoffset:3.77954"
     inkscape:label="Construction"
     d="M 3.1294902,0 C 3.0068548,0 2.8913153,0.02331318 2.7828305,0.07030755 2.6719868,0.11534371 2.5816472,0.18029226 2.5108963,0.26449032 2.2278917,0.31540086 1.9952384,0.43474687 1.8136436,0.62272405 1.6320492,0.81070154 1.5427224,1.0252486 1.5450806,1.2660939 V 1.574108 C 1.4365956,1.634809 1.3539066,1.7122464 1.2973057,1.8062346 1.2383467,1.9021816 1.2121347,2.0029316 1.2192097,2.1086687 1.2168497,2.232029 1.2522917,2.3474893 1.3253984,2.4551844 1.2310619,2.5883348 1.2044,2.72933 1.244492,2.8781457 1.2845845,3.0269606 1.3800984,3.1454746 1.5310342,3.2335894 v 0.00334 c 0,0.14294 0.048264,0.2739442 0.1449567,0.3933875 0.030657,0.1292304 0.08612,0.2494124 0.1663068,0.3610237 C 1.3753402,4.2126131 0.81136329,4.5123676 0.5236418,4.8902809 0.23356195,5.2662348 0.06615941,5.6775653 0.02135017,6.1240111 L 0,6.3499996 H 6.3499999 L 6.3325826,6.1240111 C 6.2877736,5.6814815 6.1213838,5.2732053 5.8336622,4.8992089 5.5459411,4.5252128 5.0177005,4.2276796 4.5554592,4.0064146 4.649795,3.879139 4.7108834,3.7406401 4.7391833,3.5918232 4.8122908,3.4919602 4.851331,3.3826067 4.8560475,3.2631632 4.9456667,3.224004 5.0201434,3.1712701 5.079101,3.1046923 5.1404172,3.0381183 5.1814795,2.9637347 5.2027075,2.8814936 5.2262903,2.7992537 5.227303,2.7165413 5.2060786,2.6343013 5.1872154,2.5540184 5.1487407,2.4796362 5.0897761,2.4111027 5.1440207,2.315156 5.1696729,2.2157957 5.167311,2.1120166 5.1743963,1.9357888 5.1061073,1.782578 4.9622368,1.6533435 4.9268621,1.623974 4.8878219,1.5989982 4.8453725,1.577456 V 1.2660939 c 0,-0.2408454 -0.090904,-0.45539238 -0.2724961,-0.64336985 C 4.391283,0.43474772 4.1591892,0.31540084 3.8761855,0.26449032 3.8030747,0.18029223 3.7121718,0.11534366 3.6036895,0.07030755 3.4952038,0.0233134 3.3796643,0 3.2570297,0 Z m 0,0.42296131 h 0.1275395 c 0.049524,0 0.094189,0.0108247 0.1342815,0.0323637 0.027682,0.014045 0.049769,0.0317452 0.067422,0.0524516 0.00336,0.003934 0.00712,0.007544 0.01011,0.0117179 1.478e-4,2.0624e-4 4.149e-4,3.5117e-4 5.619e-4,5.5801e-4 0.00664,0.008321 0.012111,0.0169249 0.017418,0.0262257 l 0.046072,0.0881634 V 1.527236 H 2.8996936 v -0.00278 h -0.04607 V 0.63165199 l 0.046072,-0.0881634 c 0.021224,-0.0372037 0.053063,-0.0666241 0.095514,-0.0881634 0.00993,-0.005041 0.020707,-0.007299 0.030902,-0.0111599 0.03336,-0.0126351 0.067253,-0.0212038 0.1033798,-0.0212038 z M 3.996421,0.7549692 C 4.05302,0.7863013 4.1038708,0.8221062 4.1486816,0.86322052 4.2736754,0.97874844 4.3324057,1.1133445 4.3324057,1.2660939 V 1.5244463 H 3.996421 Z M 2.3445894,0.78119504 V 1.5244463 H 2.0541142 V 1.2660939 c 0,-0.1546895 0.061651,-0.28930355 0.184286,-0.40287338 0.030659,-0.0293692 0.066096,-0.0565655 0.1061892,-0.0820255 z M 1.7962263,1.9474076 h 2.7946293 c 0.025945,0.021542 0.044958,0.04569 0.056746,0.073098 0.011808,0.029369 0.015403,0.060178 0.010677,0.091511 0.00473,0.060702 -0.016876,0.1142663 -0.064051,0.161261 l -0.063488,0.044082 0.00337,-0.090953 c 0.00235,-0.031333 -0.00789,-0.057701 -0.031464,-0.079235 -0.025945,-0.021536 -0.057788,-0.032364 -0.095514,-0.032364 H 1.9552291 c -0.035376,0 -0.066202,0.010818 -0.092142,0.032364 -0.025941,0.021542 -0.037754,0.04791 -0.035396,0.079235 l 0.0073,0.079235 -0.038767,-0.029574 c -0.025942,-0.023496 -0.044953,-0.04903 -0.056747,-0.076445 -0.011792,-0.029369 -0.016405,-0.059622 -0.014046,-0.090955 -0.00236,-0.029369 0.00226,-0.058786 0.014046,-0.088163 0.011791,-0.027416 0.030804,-0.051564 0.056747,-0.073098 z M 2.0934435,2.3262871 H 4.2722881 L 4.2014953,3.3747626 C 4.1684653,3.5862369 4.0663144,3.760538 3.8941648,3.8976053 3.7220046,4.034671 3.5237768,4.1060018 3.2997301,4.1118759 H 3.2710759 3.0980269 3.0693726 C 2.845327,4.1060217 2.6476608,4.0346909 2.4754999,3.8976053 2.3033385,3.7605394 2.2006245,3.5862383 2.1676075,3.3747626 Z m 2.4193152,0.2321266 0.1101221,0.0558 c 0.03303,0.017625 0.057671,0.041772 0.074164,0.073098 0.016497,0.029369 0.021098,0.061014 0.014046,0.094301 -0.00944,0.031333 -0.02846,0.058527 -0.056746,0.082026 -0.025945,0.023496 -0.058795,0.039035 -0.098885,0.046872 l -0.067422,0.00893 z M 1.856344,2.5907777 1.877695,2.9077198 1.867018,2.9049398 C 1.834002,2.8951498 1.805763,2.8782178 1.78218,2.8547208 1.760956,2.8312248 1.746555,2.8048568 1.73948,2.7754848 1.73476,2.7461158 1.73836,2.7175268 1.750157,2.6901118 1.764308,2.6626958 1.785344,2.6402188 1.813645,2.6225958 Z M 2.2962705,4.202829 c 0.035376,0.017619 0.071827,0.03233 0.1095603,0.044082 0.00472,0.017619 0.069452,0.033159 0.074164,0.046872 V 5.9270383 H 2.0305167 V 4.3088487 c 0.042451,-0.015658 0.081488,-0.029527 0.1168642,-0.041293 z m 1.683295,0 0.2337285,0.076445 C 4.251026,4.292972 4.289055,4.307683 4.3267872,4.323356 V 5.9270383 H 3.8700052 V 4.246911 C 3.9077382,4.233214 3.9441882,4.218502 3.9795655,4.202829 Z M 2.7631658,4.3177765 c 0.035376,0.00391 0.071827,0.00559 0.1095602,0.00559 h 0.038767 0.5129668 0.0427 c 0.0283,0 0.056537,-0.00166 0.084839,-0.00559 -0.040093,0.058748 -0.095556,0.1053734 -0.1663069,0.1406152 -0.068393,0.035242 -0.1438811,0.053011 -0.2264244,0.053011 -0.084903,0 -0.1629784,-0.017767 -0.2337286,-0.053011 -0.07075,-0.037206 -0.124639,-0.083832 -0.1623731,-0.1406152 z M 1.7759998,4.423238 V 5.9270383 H 1.2029154 V 4.8283434 C 1.2831005,4.7519769 1.3704019,4.6798142 1.4647363,4.6112827 1.5590711,4.5427454 1.6627978,4.4800181 1.7759998,4.423238 Z m 2.8053043,0.017856 c 0.1957467,0.1018209 0.372375,0.2228319 0.5303841,0.3638138 V 5.9270379 H 4.5813041 Z" />
  <path
     id="text8"
     style="font-size:5.33333px;line-height:0.95;font-family:'Franklin Gothic Book';-inkscape-font-specification:'Franklin Gothic Book, ';text-align:justify;white-space:pre;display:none;fill:#0158c9;stroke-width:2.03078;stroke-linecap:square;stroke-linejoin:round;stroke-dashoffset:3.77954"
     inkscape:label="Chemical"
     d="M 3.3942046,8.4897502e-5 C 3.3751623,5.6537035e-4 3.3558266,0.00291795 3.3355778,0.00741352 3.2545805,0.02539383 3.1883095,0.07015414 3.1365832,0.14158233 c -0.041725,0.0576056 -0.065837,0.12001023 -0.072157,0.18715985 -0.00455,0.0667553 0.00749,0.1260361 0.036643,0.17757637 L 0.28582957,4.397214 C 0.14387163,4.5911603 0.0549989,4.7998031 0.01918806,5.0223955 -0.01662283,5.2449886 -0.00239359,5.4563806 0.06259481,5.6565969 0.12745162,5.8549105 0.24229677,6.0179976 0.40646655,6.1459184 0.56870503,6.2723373 0.75149233,6.3398898 0.95497018,6.3488629 1.1584481,6.3578377 1.3576363,6.3136664 1.5519541,6.2163853 1.7480718,6.1187065 1.9167841,5.9728745 2.0587421,5.7789273 L 4.8745443,1.8880317 C 4.9303816,1.9027082 4.988191,1.8981743 5.0487351,1.8750665 5.1092785,1.8519566 5.160356,1.812029 5.2020681,1.7544272 5.2554606,1.6806951 5.2794428,1.601459 5.2736609,1.5176588 5.2677483,1.4319527 5.2339967,1.3651271 5.1721901,1.3169693 L 3.5492288,0.05025727 C 3.5029757,0.01556579 3.4513306,-0.00135657 3.3942046,8.4897502e-5 Z M 3.3868762,0.75323419 4.5690057,1.6715576 4.0154286,2.435418 1.9651638,2.7161577 2.3033983,2.2499493 2.6365594,2.5092671 c 0.02897,0.022574 0.062998,0.029648 0.1025976,0.020858 0.041401,-0.00918 0.07577,-0.03156 0.1025976,-0.066521 0.026699,-0.036867 0.038408,-0.075921 0.035515,-0.1178205 -0.00303,-0.043803 -0.019833,-0.077955 -0.050736,-0.1020353 L 2.4933734,1.9844303 Z M 5.7252041,2.3091414 c 0,0 -0.6277355,0.8227309 -0.6240427,1.2481082 -0.00368,0.2043585 0.2060872,0.6246178 0.6240427,0.6246178 0.421677,0 0.6320206,-0.4202593 0.6246062,-0.6246178 C 6.3572283,3.1318723 5.7252041,2.3091414 5.7252041,2.3091414 Z M 1.7300909,3.0414325 2.0604332,3.3013142 c 0.0309,0.024081 0.047841,0.05732 0.050736,0.099217 0.00289,0.041901 -0.00882,0.080955 -0.035515,0.1178205 -0.026696,0.036864 -0.060179,0.059985 -0.099779,0.068776 -0.039599,0.0088 -0.074513,9.658e-4 -0.1054165,-0.023113 L 1.5372972,3.3075152 Z M 0.96398977,4.0989985 1.2948959,4.35888 c 0.030769,0.022175 0.04771,0.055412 0.050736,0.099218 0.00289,0.041903 -0.00938,0.080955 -0.036078,0.1178205 -0.024897,0.036465 -0.057817,0.059586 -0.099215,0.068776 -0.0396,0.0088 -0.075077,9.65e-4 -0.1059805,-0.023113 L 0.7711961,4.3622625 Z" />
  <path
     id="text9"
     style="font-size:5.33333px;line-height:0.95;font-family:'Franklin Gothic Book';-inkscape-font-specification:'Franklin Gothic Book, ';text-align:justify;white-space:pre;display:none;fill:#0158c9;stroke-width:2.13217;stroke-linecap:square;stroke-linejoin:round;stroke-dashoffset:3.77954"
     inkscape:label="Trucking"
     d="M 2.6003872,0 V 0.84956053 1.0609641 H 1.2714631 c -0.1037806,0 -0.2006112,0.027439 -0.2906845,0.082306 -0.0900734,0.052907 -0.15948061,0.1255066 -0.20843667,0.2176048 l -0.71657115,1.363694 -0.0028165,0.00903 C 0.03728977,2.768867 0.02443742,2.8051676 0.01464695,2.8423972 0.00485639,2.8776688 0,2.9188299 0,2.9658569 v 0.5541529 h 0.19378969 c 0.0626594,0 0.11664232,0.023442 0.16167918,0.070468 0.0450369,0.045068 0.0670378,0.1617941 0.0670378,0.1617941 v 0.042282 c 0,0 -0.0220009,0.1195453 -0.0670378,0.1646129 -0.0450369,0.045071 -0.0990198,0.06765 -0.16167918,0.06765 H 0.02309694 c 0.03524593,0.1214888 0.1052187,0.2223892 0.20899993,0.3027294 0.10378012,0.0823 0.22175352,0.1234598 0.35490554,0.1234598 h 0.0529542 c -0.003916,-0.037231 -0.005634,-0.073533 -0.005634,-0.1088018 0,-0.176357 0.0428483,-0.3361383 0.12900536,-0.4791815 0.0861581,-0.1450039 0.200697,-0.2604842 0.34363933,-0.3467031 0.1449005,-0.086219 0.3054269,-0.1290971 0.4816575,-0.1290971 0.1742722,0 0.3330815,0.042879 0.4760241,0.1290971 0.1449006,0.086218 0.260296,0.2016992 0.3464554,0.3467019 0.086157,0.1430435 0.1295687,0.3028246 0.1295687,0.4791814 0,0.035274 -0.00227,0.071572 -0.00619,0.1088018 h 1.2838567 c -0.00587,-0.037231 -0.00902,-0.073533 -0.00902,-0.1088018 0,-0.176357 0.042847,-0.3361381 0.1290054,-0.4791814 0.086158,-0.1450027 0.2006972,-0.260483 0.3436386,-0.3467019 0.1448999,-0.086218 0.3059894,-0.1290971 0.4822209,-0.1290971 0.1742734,0 0.3333781,0.042879 0.4782775,0.1290971 0.1449024,0.086218 0.2594438,0.2017 0.3436387,0.3467019 0.086158,0.1430433 0.1295686,0.3028246 0.1295686,0.4791814 0,0.035274 -0.00227,0.071572 -0.00619,0.1088018 h 0.050137 c 0.1408829,0 0.1382381,-0.00169 0.5903826,-0.00169 V 4.0409089 3.3892221 0.84956053 0 H 5.5038602 3.3862572 Z M 1.2714631,1.484335 h 1.480463 V 2.9658512 H 0.42250651 c 0,-0.0098 0.001425,-0.018652 0.003381,-0.026496 0.001961,-0.00784 0.005958,-0.017559 0.0118302,-0.029314 l 0.0788673,-0.156157 H 1.6708727 c 0.064617,0 0.1194592,-0.022581 0.1644959,-0.06765 0.046995,-0.045069 0.070418,-0.099948 0.070418,-0.164613 V 1.930819 c 0,-0.064663 -0.023424,-0.1189805 -0.070418,-0.1640492 C 1.7903314,1.7217009 1.73549,1.6991211 1.6708727,1.6991211 h -0.596016 l 0.070418,-0.1414996 c 0.027413,-0.048987 0.069403,-0.073287 0.1261884,-0.073287 z m 0.3171616,2.1191094 c -0.1370681,0 -0.2621784,0.033159 -0.3757492,0.099783 -0.1116127,0.066624 -0.2004482,0.1560857 -0.26702417,0.2677779 -0.0665756,0.1116919 -0.10027484,0.236033 -0.10027484,0.3731978 0,0.1352053 0.0336992,0.2586872 0.10027484,0.3703791 0.0665757,0.1136513 0.15541127,0.2039722 0.26702417,0.2705965 0.1135708,0.066624 0.2386811,0.099783 0.3757492,0.099783 0.1351101,0 0.2585034,-0.033159 0.3701158,-0.099783 0.1135706,-0.066625 0.2038284,-0.1569456 0.2704042,-0.2705965 0.066576,-0.1116919 0.099712,-0.2351739 0.099712,-0.3703791 0,-0.1371648 -0.033136,-0.2615059 -0.099712,-0.3731978 C 2.1625694,3.8593129 2.0723115,3.7698514 1.9587405,3.7032268 1.8471277,3.6366028 1.7237346,3.6034444 1.5886247,3.6034444 Z m 3.1755596,0 c -0.1370674,0 -0.2627421,0.033159 -0.3763126,0.099783 -0.1116125,0.066624 -0.2004471,0.1560857 -0.2670242,0.2677779 -0.066577,0.1116919 -0.1002749,0.236033 -0.1002749,0.3731978 0,0.1352053 0.033698,0.2586872 0.1002749,0.3703791 0.066577,0.1136513 0.1554113,0.2039722 0.2670242,0.2705965 0.1135705,0.066624 0.2392452,0.099783 0.3763126,0.099783 0.1351091,0 0.25794,-0.033159 0.3695524,-0.099783 0.1135706,-0.066624 0.2038271,-0.156945 0.2704042,-0.2705965 0.066578,-0.1116919 0.099713,-0.2351739 0.099712,-0.3703791 0,-0.1371648 -0.033135,-0.2615059 -0.099712,-0.3731978 C 5.3375635,3.8593129 5.2473073,3.7698514 5.1337367,3.7032268 5.0221243,3.6366026 4.8992934,3.6034444 4.7641843,3.6034444 Z m -3.1755596,0.423371 c 0.086157,0 0.160987,0.03144 0.2236468,0.094146 0.06266,0.060746 0.093514,0.1350669 0.093514,0.2232423 0,0.088178 -0.030855,0.1624988 -0.093514,0.223242 -0.06266,0.062706 -0.1374894,0.094146 -0.2236468,0.094146 -0.088115,0 -0.1632405,-0.03144 -0.2259002,-0.094146 -0.060702,-0.060746 -0.091261,-0.1350668 -0.091261,-0.223242 0,-0.088178 0.03056,-0.1624991 0.091261,-0.2232423 0.06266,-0.062706 0.1377847,-0.094146 0.2259002,-0.094146 z m 3.1755596,0 c 0.086158,0 0.1604253,0.03144 0.2230834,0.094146 0.062658,0.060746 0.094079,0.1350669 0.094079,0.2232423 0,0.088178 -0.031421,0.1624988 -0.094079,0.223242 -0.062661,0.062706 -0.1369285,0.094146 -0.2230834,0.094146 -0.088115,0 -0.1638028,-0.03144 -0.2264636,-0.094146 -0.0607,-0.060746 -0.091261,-0.1350672 -0.091261,-0.2232426 0,-0.088178 0.030562,-0.1624991 0.091261,-0.2232421 0.062661,-0.062706 0.1383478,-0.094146 0.2264636,-0.094146 z M 0.58756574,5.4840906 c -0.1633554,0 -0.29462792,0.064366 -0.29462792,0.1443182 0,0.079952 0.13127252,0.1443182 0.29462792,0.1443182 H 5.7669331 c 0.1633555,0 0.2946281,-0.064366 0.2946281,-0.1443182 0,-0.079951 -0.1312726,-0.1443182 -0.2946281,-0.1443182 z M 0.32899171,6.0613633 c -0.17969096,0 -0.32448506,0.064366 -0.32448506,0.1443182 0,0.079951 0.1447941,0.1443181 0.32448506,0.1443181 H 6.0255073 c 0.179691,0 0.324485,-0.064366 0.324485,-0.1443181 0,-0.079952 -0.144794,-0.1443182 -0.324485,-0.1443182 z"
     sodipodi:nodetypes="cccscccccscscsscsccscsccsccsccsccsccscscccccccccccccccscsscscccscssccsccsscsscssccsccsscsscscssscsscscscsssssssssssssssss" />
  <path
     id="text10"
     style="font-size:5.33333px;line-height:0.95;font-family:'Franklin Gothic Book';-inkscape-font-specification:'Franklin Gothic Book, ';text-align:justify;white-space:pre;display:none;fill:#0158c9;stroke-width:1.96779;stroke-linecap:square;stroke-linejoin:round;stroke-dashoffset:3.77954"
     inkscape:label="Farmer"
     d="M 1.682818,1.4370169e-6 C 1.5384279,1.4370169e-6 1.4063615,0.0463877 1.2873586,0.139073 1.1699425,0.22969868 1.0755639,0.35226428 1.0041622,0.50673995 0.93434722,0.65915596 0.89979661,0.82942586 0.89979661,1.0168567 V 2.388429 c 0,0.1235804 0.0429412,0.2101302 0.12862319,0.2595626 V 5.2340472 H 0.68542531 V 3.6704773 c 0,-0.1503552 -0.0267233,-0.2895137 -0.0806715,-0.4172148 C 0.55080619,3.1255629 0.4773338,3.0209088 0.3853049,2.9385217 0.29486264,2.8561344 0.19265747,2.8056 0.07841484,2.7870632 0.05778837,2.7850032 0.03956145,2.7933032 0.02369366,2.8118372 0.00782713,2.8283152 0,2.8505672 0,2.8794032 V 4.560086 c 0,0.1647755 0.02996725,0.3156234 0.09026177,0.4515603 0.06188128,0.1338783 0.14451999,0.240606 0.24765575,0.3209342 0.10472249,0.078269 0.22057141,0.117676 0.34750787,0.117676 H 1.0284201 v 0.8372447 c 0,0.039134 0.014983,0.058557 0.045131,0.058557 h 0.082927 c 0.028561,0 0.042874,-0.019423 0.042874,-0.058557 V 2.6479916 C 1.2850355,2.5985592 1.3279764,2.5127651 1.3279764,2.3912441 V 1.9897947 c 0,-0.06385 0.025384,-0.095718 0.076159,-0.095718 h 0.5235181 c 0.060294,0 0.1110627,-0.02772 0.1523168,-0.08333 0.042841,-0.05561 0.063641,-0.1227383 0.062054,-0.2010064 0,-0.078268 -0.02214,-0.1433205 -0.066568,-0.1948128 -0.04284,-0.053552 -0.092938,-0.079952 -0.1500602,-0.079952 H 1.5158332 c -0.030148,0 -0.045131,-0.018668 -0.045131,-0.055742 0,-0.037074 0.014315,-0.055742 0.042874,-0.055742 h 0.7548139 c 0.055534,0 0.1050676,-0.025645 0.149496,-0.077137 0.044428,-0.051491 0.067802,-0.1173003 0.069388,-0.19762792 0,-0.0782671 -0.021472,-0.14407616 -0.064312,-0.19762806 -0.041256,-0.055612 -0.091353,-0.0833303 -0.1500602,-0.0833303 H 1.687331 c -0.030148,0 -0.045131,-0.018667 -0.045131,-0.0557412 0,-0.0370744 0.014314,-0.0557412 0.042874,-0.0557412 h 0.75425 c 0.057121,0 0.1078898,-0.0256451 0.1523166,-0.0771368 0.044429,-0.0514916 0.067133,-0.11730049 0.067133,-0.19762802 0,-0.0782674 -0.021473,-0.14463918 -0.064312,-0.19819107 C 2.5532065,0.02771914 2.5031107,0 2.444402,0 Z M 4.8600327,0.00394235 c -0.1443902,0 -0.2764565,0.04638625 -0.3954595,0.13907157 C 4.3471571,0.23363995 4.2527785,0.35620558 4.1813769,0.51068125 4.111562,0.66309727 4.0770114,0.83280403 4.0770114,1.020235 v 1.3721353 c 0,0.1235803 0.042941,0.2101303 0.1286229,0.2595626 V 5.2374255 H 3.86264 V 3.6744187 C 3.86264,3.5240633 3.835917,3.3849047 3.781969,3.2572039 3.7280209,3.1295042 3.6545485,3.0242871 3.5625196,2.9418999 3.4720774,2.8595128 3.3698722,2.8089782 3.2556295,2.7904413 c -0.020627,-0.00206 -0.038854,0.00624 -0.054721,0.024774 -0.015866,0.016478 -0.023694,0.039292 -0.023694,0.068128 V 4.564026 c 0,0.1647756 0.029968,0.3150603 0.090262,0.4509973 0.061881,0.1338783 0.1445202,0.2411692 0.2476557,0.3214974 0.1047229,0.078269 0.2205716,0.1171129 0.3475079,0.1171129 h 0.3429948 v 0.8372446 c 0,0.039134 0.014983,0.059119 0.04513,0.059119 h 0.082927 c 0.028561,0 0.042874,-0.019987 0.042874,-0.059119 V 2.6519329 C 4.4622503,2.6024999 4.5051911,2.5167063 4.5051911,2.3951855 V 1.993736 c 0,-0.06385 0.025385,-0.095717 0.076159,-0.095717 h 0.5235184 c 0.060295,0 0.1110627,-0.028282 0.1523166,-0.083894 0.042841,-0.05561 0.063641,-0.1221752 0.062055,-0.2004432 0,-0.078268 -0.02214,-0.1433206 -0.066568,-0.1948128 C 5.2098302,1.365317 5.1597324,1.338354 5.1026108,1.338354 H 4.6930484 c -0.030148,0 -0.04513,-0.018104 -0.04513,-0.055179 0,-0.037074 0.014314,-0.055742 0.042874,-0.055742 H 5.445607 c 0.055534,0 0.1050687,-0.025645 0.1494961,-0.077137 0.044428,-0.051491 0.067802,-0.1173004 0.069389,-0.19762808 0,-0.0782671 -0.021472,-0.14463911 -0.064311,-0.19819106 -0.041256,-0.055612 -0.091352,-0.0833303 -0.1500602,-0.0833303 h -0.585575 c -0.030148,0 -0.045131,-0.0186671 -0.045131,-0.0557412 0,-0.0370744 0.014313,-0.0551783 0.042874,-0.0551783 h 0.7542498 c 0.057121,0 0.1078898,-0.0256451 0.1523169,-0.0771368 0.044429,-0.0514915 0.067132,-0.1178634 0.067132,-0.19819095 0,-0.0782673 -0.021472,-0.14407612 -0.064312,-0.19762801 C 5.7304206,0.03166011 5.6803236,0.00394098 5.6216163,0.00394098 Z m -3.1772147,0.218461 h 0.7615838 c 0.028561,0 0.042874,0.0186668 0.042874,0.0557412 v 0.003379 c 0,0.0350148 -0.016218,0.0523631 -0.047951,0.0523631 H 1.6850746 c -0.058707,0 -0.1094755,0.0277193 -0.1523168,0.0833303 -0.042841,0.0535514 -0.063641,0.12067873 -0.062054,0.20100629 0.00159,0.0782674 0.02372,0.14275743 0.066568,0.1942497 0.042841,0.0514912 0.092939,0.0777004 0.1500602,0.0777004 h 0.5855733 c 0.028561,0 0.042874,0.0181041 0.042874,0.0551784 v 0.003378 c 0,0.035015 -0.015655,0.0523629 -0.047387,0.0523629 H 1.5135771 c -0.060294,0 -0.1117326,0.027719 -0.1545732,0.08333 -0.041254,0.05561 -0.060821,0.1227383 -0.059235,0.2010062 0.00159,0.078267 0.02372,0.1433206 0.066568,0.1948128 0.042841,0.051491 0.092375,0.077137 0.149496,0.077137 h 0.4095629 c 0.030148,0 0.045131,0.019423 0.045131,0.058557 0.00159,0.035015 -0.012734,0.052363 -0.042874,0.052363 h -0.523518 c -0.068228,0 -0.1268229,0.031868 -0.1760105,0.095716 -0.047601,0.06179 -0.071645,0.1372137 -0.071645,0.2257802 v 0.4014485 c 0,0.037074 -0.014315,0.055742 -0.042874,0.055742 h -0.00226 c -0.026975,0 -0.040053,-0.019423 -0.040053,-0.058556 V 1.0168567 c 0,-0.1462369 0.026723,-0.2791731 0.080671,-0.39863432 C 1.2074972,0.49670155 1.2810755,0.40053671 1.3731042,0.33050756 1.4667193,0.25841883 1.5701589,0.2224034 1.682815,0.2224034 Z m 3.1772147,0.003941 h 0.7615838 c 0.028561,0 0.042874,0.0186669 0.042874,0.0557412 v 0.002815 c 0,0.0350148 -0.016218,0.052926 -0.047951,0.052926 H 4.8622893 c -0.058707,0 -0.1094755,0.0277193 -0.1523168,0.0833303 -0.042841,0.0535513 -0.063641,0.12011569 -0.062055,0.20044322 0.00159,0.0782674 0.023719,0.14332047 0.066568,0.19481275 0.04284,0.0514912 0.092938,0.0771371 0.1500602,0.0771371 h 0.5855727 c 0.028561,0 0.042874,0.0186674 0.042874,0.0557416 v 0.003378 c 0,0.035015 -0.015653,0.052363 -0.047387,0.052363 H 4.690792 c -0.060295,0 -0.1117327,0.027719 -0.1545735,0.08333 -0.041253,0.05561 -0.060821,0.1227381 -0.059235,0.2010063 0.00159,0.078268 0.02372,0.1427574 0.066568,0.1942497 0.042841,0.051491 0.092374,0.077699 0.1494961,0.077699 h 0.4095628 c 0.030148,0 0.045131,0.019422 0.045131,0.058556 0.00159,0.035015 -0.012736,0.052363 -0.042874,0.052363 h -0.523518 c -0.068227,0 -0.1268228,0.031868 -0.1760105,0.095717 -0.047601,0.06179 -0.071645,0.1372138 -0.071645,0.2257801 v 0.4014496 c 0,0.037074 -0.014315,0.055742 -0.042874,0.055742 h -0.00226 c -0.026974,0 -0.040053,-0.019423 -0.040053,-0.058556 V 1.020235 c 0,-0.146237 0.026723,-0.27917311 0.080671,-0.39863432 0.055537,-0.12152086 0.129115,-0.21712268 0.2211438,-0.28715183 0.093616,-0.0720888 0.1970548,-0.10810421 0.309711,-0.1081045 z m -2.66103,1.77921555 c -0.1443902,0 -0.2758927,0.045067 -0.3948955,0.1356933 -0.117416,0.090626 -0.2117946,0.2131912 -0.2831963,0.3676669 -0.069815,0.1544755 -0.104929,0.3241828 -0.104929,0.5095537 v 1.3721353 c 0,0.1235831 0.042271,0.2101318 0.1263665,0.2595627 V 6.271735 c 0,0.049432 0.018898,0.074322 0.056977,0.074322 h 0.464284 C 2.188959,6.346057 2.3029042,6.305893 2.40604,6.2255659 2.5107624,6.1452373 2.5940706,6.037191 2.6559532,5.9012532 2.7178341,5.767375 2.7490358,5.6191653 2.7490358,5.4564495 V 4.4091896 c 0,-0.028843 -0.00783,-0.051657 -0.023694,-0.068127 C 2.7094851,4.3225356 2.6900235,4.3142336 2.6678001,4.3162886 2.5535575,4.3348246 2.4506824,4.3853596 2.3586535,4.4677471 2.2682122,4.5501351 2.1959733,4.6547886 2.1420253,4.782488 2.0896645,4.9101904 2.063611,5.0506661 2.063611,5.203081 V 6.1236547 H 1.7138454 V 4.652987 C 1.8011142,4.6056157 1.8447251,4.5203826 1.8447251,4.3968024 V 3.9919746 c 0,-0.063847 0.025384,-0.095716 0.076159,-0.095716 H 2.444402 c 0.060294,0 0.1110634,-0.028284 0.1523168,-0.083894 0.042841,-0.055609 0.063641,-0.1221748 0.062055,-0.2004433 v -0.00338 c -0.00159,-0.07621 -0.024959,-0.1399448 -0.069388,-0.191435 -0.042841,-0.05149 -0.092939,-0.077137 -0.1500602,-0.077137 H 2.0636099 c -0.030148,0 -0.045131,-0.017348 -0.045131,-0.052363 v -0.00338 c -0.00159,-0.037074 0.012727,-0.055742 0.042874,-0.055742 h 0.7209662 c 0.057119,0 0.1078876,-0.025645 0.1523167,-0.077137 0.044429,-0.051492 0.066568,-0.1173008 0.066568,-0.197628 0.00159,-0.078269 -0.019215,-0.1440776 -0.062055,-0.1976291 -0.042841,-0.055616 -0.093608,-0.083335 -0.1523172,-0.083335 H 2.2351073 c -0.030148,0 -0.045696,-0.017911 -0.045696,-0.052926 v -0.00282 c 0,-0.037074 0.014314,-0.055742 0.042874,-0.055742 h 0.72153 c 0.057119,0 0.1078876,-0.025645 0.1523168,-0.077137 0.044429,-0.051495 0.066568,-0.1173042 0.066568,-0.1976314 0.00159,-0.078268 -0.019214,-0.1440764 -0.062054,-0.197628 -0.04284,-0.05561 -0.093608,-0.08333 -0.1523169,-0.08333 z m 3.1772145,0.00338 c -0.14439,0 -0.2758923,0.04563 -0.3948952,0.1362563 C 4.8639059,2.2358204 4.7695273,2.3583864 4.6981256,2.512862 4.6283107,2.6673378 4.5931968,2.837045 4.5931968,3.0224158 V 4.393988 c 0,0.1235832 0.042271,0.2101319 0.1263664,0.2595628 V 6.275677 c 0,0.049432 0.018897,0.074323 0.056977,0.074323 H 5.2408251 C 5.3661748,6.35 5.4801199,6.309836 5.5832556,6.2295088 5.6879775,6.1491808 5.7712856,6.0405709 5.833168,5.904633 5.89505,5.7707547 5.9262506,5.6225451 5.9262506,5.4598293 V 4.4125676 c 0,-0.028843 -0.00783,-0.051657 -0.023694,-0.068128 C 5.8866998,4.3259126 5.8672381,4.3181726 5.8450152,4.3202286 5.7307725,4.3387646 5.6278975,4.3887366 5.5358686,4.471124 5.4454274,4.553512 5.3731885,4.6587285 5.3192403,4.7864281 5.2668794,4.9141303 5.2408261,5.0540431 5.2408261,5.2064579 V 6.1275961 H 4.8910602 V 4.6569283 C 4.9783288,4.609557 5.0219397,4.5237609 5.0219397,4.4001807 V 3.995353 c 0,-0.063848 0.025384,-0.095717 0.076159,-0.095717 H 5.621617 c 0.060294,0 0.1110633,-0.02772 0.1523167,-0.08333 0.042841,-0.055609 0.063642,-0.1227379 0.062055,-0.2010064 v -0.00282 C 5.8344015,3.5362746 5.8110284,3.4725394 5.7665992,3.4210494 5.7237593,3.3695594 5.6736613,3.3439124 5.616539,3.3439124 H 5.2408246 c -0.030148,0 -0.04513,-0.017911 -0.04513,-0.052926 v -0.00282 c -0.00159,-0.037074 0.012727,-0.055742 0.042874,-0.055742 h 0.7209659 c 0.057119,0 0.1078876,-0.025645 0.1523169,-0.077138 C 6.1562812,3.1038034 6.17842,3.0379948 6.17842,2.9576675 6.1800072,2.8793985 6.1592039,2.813591 6.116365,2.7600395 6.0735241,2.7044285 6.0227567,2.6761455 5.9640483,2.6761455 H 5.4123219 c -0.030148,0 -0.045695,-0.017349 -0.045695,-0.052363 v -0.00282 c 0,-0.037074 0.014315,-0.055742 0.042874,-0.055742 h 0.7215302 c 0.057119,0 0.1078875,-0.025645 0.1523166,-0.077137 0.044428,-0.051487 0.066567,-0.1172959 0.066567,-0.1976231 C 6.3515028,2.212193 6.3307009,2.1458215 6.2878611,2.09227 6.2450203,2.036659 6.1942528,2.00894 6.1355443,2.00894 Z M 2.1990027,2.2279616 h 0.759327 c 0.028561,0 0.042874,0.018104 0.042874,0.055179 0,0.037074 -0.015654,0.055742 -0.047387,0.055742 h -0.72153 c -0.058707,0 -0.1094761,0.02772 -0.1523168,0.08333 -0.042834,0.053552 -0.06307,0.1193606 -0.06149,0.197628 0,0.080327 0.02214,0.1466994 0.066568,0.198191 0.044428,0.051491 0.094526,0.077138 0.1500602,0.077138 H 2.786833 c 0.02856,0 0.042874,0.018666 0.042874,0.055742 v 0.00282 c 0,0.035015 -0.015654,0.052363 -0.047387,0.052363 H 2.0613533 c -0.060294,0 -0.1122967,0.028283 -0.1551373,0.083894 -0.041246,0.053552 -0.060815,0.1193606 -0.059235,0.1976279 0,0.080329 0.022141,0.1461381 0.066568,0.197628 0.044428,0.051491 0.094526,0.077138 0.1500602,0.077138 h 0.3757147 c 0.030154,0 0.046371,0.018668 0.047951,0.055742 0,0.035014 -0.014314,0.052363 -0.042874,0.052363 H 1.920883 c -0.068228,0 -0.1273871,0.031867 -0.1765747,0.095716 -0.047601,0.061789 -0.07108,0.1372135 -0.07108,0.2257802 v 0.4048278 c 0,0.037073 -0.014315,0.055179 -0.042874,0.055179 h -0.00226 c -0.026974,0 -0.040618,-0.020179 -0.040618,-0.061371 V 3.0184738 c 0,-0.1462369 0.026723,-0.2791732 0.080671,-0.3986342 C 1.7236814,2.5003787 1.797824,2.4060952 1.8898528,2.3360659 1.9834695,2.2639779 2.0863436,2.2279613 2.1989996,2.2279613 Z m 3.1772145,0.00338 h 0.7593273 c 0.028561,0 0.042874,0.018667 0.042874,0.055742 0,0.037074 -0.015654,0.055742 -0.047387,0.055742 H 5.4095013 c -0.058707,0 -0.109476,0.027719 -0.1523169,0.08333 -0.042834,0.053552 -0.06307,0.1193607 -0.06149,0.1976281 0,0.080327 0.02214,0.1461364 0.066568,0.197628 0.044428,0.051491 0.094526,0.077701 0.1500601,0.077701 h 0.5517247 c 0.02856,0 0.042874,0.018104 0.042874,0.055179 v 0.00338 c 0,0.035015 -0.015655,0.052363 -0.047387,0.052363 H 5.2385674 c -0.060295,0 -0.1122967,0.02772 -0.1551375,0.08333 -0.041246,0.053552 -0.060814,0.1193608 -0.059235,0.1976281 0,0.080329 0.02214,0.146701 0.066568,0.1981911 0.044428,0.051491 0.094526,0.077138 0.1500602,0.077138 h 0.3757146 c 0.030154,0 0.046371,0.018105 0.047951,0.055179 0,0.035014 -0.014315,0.052926 -0.042874,0.052926 H 5.0980982 c -0.068228,0 -0.1273868,0.031867 -0.1765747,0.095716 -0.047601,0.061789 -0.071081,0.1366503 -0.071081,0.2252171 v 0.4048277 c 0,0.037073 -0.014314,0.055742 -0.042874,0.055742 h -0.00226 c -0.026975,0 -0.040618,-0.020741 -0.040618,-0.061935 V 3.0224151 c 0,-0.146237 0.026723,-0.2791731 0.080671,-0.3986343 C 4.9008955,2.5043198 4.9750376,2.4094734 5.0670666,2.3394441 5.1606816,2.2673561 5.2635571,2.2313397 5.376213,2.2313399 Z" />
  <path
     id="text11"
     style="font-size:5.33333px;line-height:0.95;font-family:'Franklin Gothic Book';-inkscape-font-specification:'Franklin Gothic Book, ';text-align:justify;white-space:pre;display:inline;fill:#0158c9;stroke-width:2.20363;stroke-linecap:square;stroke-linejoin:round;stroke-dashoffset:3.77954"
     inkscape:label="Equipment"
     d="M 5.395583,0 C 5.3542926,-3.5978864e-7 5.3071587,5.6368829e-4 5.2535198,5.6368829e-4 H 3.0639425 c -0.1214706,0 -0.224463,0.0437284717 -0.3094948,0.13077672171 -0.085034,0.0850241 -0.1859298,0.17884296 -0.087379,0.24633378 L 3.0064407,0.61047932 2.0711913,1.9712337 H 1.970845 V 1.3224234 c 0,-0.07288 -0.036481,-0.1093565 -0.109366,-0.1093565 -0.072885,0 -0.1093662,0.036478 -0.1093662,0.1093565 V 1.9712337 H 0.87436515 C -2.368695e-4,1.9712337 0,2.0206717 0,2.851722 V 4.1606167 C 0,4.803835 2.4488355e-4,4.8167551 0.65619671,4.8167551 h 0.078924 c 0.0607377,0.1295589 0.15273714,0.2346928 0.27623389,0.315668 0.1235,0.083 0.262178,0.1245762 0.4160424,0.1245762 0.1538671,0 0.2925453,-0.041575 0.4160422,-0.1245762 0.1234967,-0.080975 0.2154963,-0.1861091 0.2762341,-0.315668 h 2.0926135 c 0.1113529,0.1336074 0.2465209,0.2395355 0.4064586,0.3184865 0.1619631,0.080975 0.337125,0.1217577 0.5254083,0.1217577 0.2206745,0 0.4221226,-0.054718 0.6043324,-0.1640347 0.18221,-0.107291 0.327342,-0.2518499 0.4346458,-0.4340434 0.109325,-0.1821931 0.1640492,-0.384981 0.1640492,-0.6076609 0,-0.1275346 -0.0196,-0.2501147 -0.058066,-0.3675277 C 6.2506504,3.5663196 6.197284,3.4582396 6.1284487,3.3590455 V 2.7243274 c 0,-0.03239 -0.00214,-0.064565 -0.0062,-0.096955 L 6.0613635,2.4086594 C 6.0390948,2.3580482 6.0120129,2.3121684 5.9796207,2.2716821 5.949253,2.2291686 5.9157152,2.1918965 5.8792744,2.1595072 5.8225888,2.1048474 5.7598197,2.0611198 5.6909843,2.0287304 V 0.43798932 C 5.6909843,0.02596398 5.6846199,2.487235e-6 5.395583,0 Z M 3.477166,0.65670214 H 3.501407 V 2.1899466 H 2.4539724 Z m 0.2429733,0 H 5.0347877 V 2.1899466 H 3.7201393 Z M 5.0319688,2.6273723 h 0.6571548 c 0.010132,0.030364 0.00185,0.062543 0.00185,0.096955 v 0.255353 C 5.5209229,2.892632 5.3385108,2.8489035 5.1441537,2.8489035 c -0.2226992,0 -0.4249411,0.054718 -0.607151,0.1640346 C 4.3547926,3.1202294 4.2088638,3.2647878 4.0995382,3.4469817 3.9922375,3.6291745 3.9388715,3.8306045 3.9388715,4.0512603 c 0,0.1113401 0.045664,0.3280694 0.045664,0.3280694 0,0 -0.010038,-0.011091 -0.3010388,0 C 3.6730741,3.6155969 3.7825921,3.4717777 3.896027,3.2801285 4.0154753,3.0817404 4.1745475,2.923476 4.3729536,2.8060629 4.5713597,2.6866258 4.7910488,2.6273723 5.0319688,2.6273723 Z m 0.1121849,0.8742874 c 0.1457664,0 0.2713038,0.050416 0.3765803,0.1516335 0.1052651,0.1012184 0.1621406,0.2237986 0.1702503,0.3675278 v 0.030438 c 0,0.1498019 -0.053367,0.2782749 -0.1606666,0.3855659 C 5.4230169,4.544116 5.2939691,4.598041 5.1441537,4.598041 5.055073,4.598041 4.9724771,4.577647 4.8955431,4.537162 4.8186093,4.4987009 4.7558408,4.446134 4.7072531,4.3793297 4.634368,4.2821594 4.5978869,4.1727218 4.5978869,4.0512603 c 0,-0.1518262 0.052571,-0.2810934 0.157848,-0.3883843 C 4.8630357,3.5555847 4.9923142,3.5016597 5.1441537,3.5016597 Z M 1.6613502,3.4722117 c 0.1341639,0.00298 0.2558852,0.070245 0.3641779,0.1359897 0.115399,0.066803 0.2062082,0.1581571 0.276234,0.2728272 0.069675,0.1140955 0.1073269,0.2402442 0.1093663,0.379929 l -0.00281,0.00282 V 4.3793297 H 2.1867585 C 2.158416,4.1930873 2.0723061,4.0369748 1.9285644,3.9114645 1.7868467,3.7859545 1.6197294,3.7231911 1.427397,3.7231911 c -0.1923327,0 -0.3602444,0.062763 -0.50398618,0.1882734 C 0.7817024,4.0369748 0.69638993,4.1930863 0.66803532,4.3793297 h -0.0118386 c -0.0908841,0 -0.14257341,-0.010153 -0.1736328,-0.033258 v -0.077226 c 0,0 0.0374359,-0.2686518 0.10711113,-0.3827475 C 0.65970097,3.7714284 0.75051017,3.6800745 0.86590901,3.613271 0.97928366,3.5444419 1.1069723,3.4761539 1.2486905,3.4761539 H 1.631472 c 0.016484,0 0.0299,-0.00416 0.029879,-0.00393 z M 1.4240145,4.1606173 c 0.070857,0 0.1336259,0.020393 0.1882902,0.06088 0.056682,0.040487 0.097468,0.093052 0.1217684,0.157834 0.012137,0.034416 0.01804,0.070894 0.01804,0.1093563 0,0.091097 -0.032182,0.1677973 -0.096963,0.2305503 -0.064783,0.06478 -0.1420544,0.097519 -0.2311346,0.097519 -0.091105,0 -0.1686061,-0.032737 -0.2333895,-0.097519 C 1.12584,4.6564839 1.093098,4.5797845 1.093098,4.4886876 c 0,-0.038465 0.00725,-0.074943 0.021423,-0.1093563 0.022273,-0.064779 0.060906,-0.1173477 0.1155673,-0.157834 0.056685,-0.040488 0.1210428,-0.06088 0.1939262,-0.06088 z M 0.58347388,5.4841675 c -0.16347146,0 -0.29483754,0.064361 -0.29483754,0.1443053 0,0.079945 0.13136608,0.1443055 0.29483754,0.1443055 H 5.7665259 c 0.1634715,0 0.2948376,-0.064361 0.2948376,-0.1443055 0,-0.079944 -0.1313661,-0.1443053 -0.2948376,-0.1443053 z M 0.3247159,6.061389 C 0.14489728,6.061389 0,6.12575 0,6.2056943 0,6.2856383 0.14489728,6.3499996 0.3247159,6.3499996 H 6.025284 c 0.1798185,0 0.3247157,-0.064361 0.3247157,-0.1443053 0,-0.079945 -0.1448972,-0.1443053 -0.3247157,-0.1443053 z"
     sodipodi:nodetypes="ssscccccssscssssccsccccsccsscscccccssccccccccccscscsccsccccssccsssccscsccscccccsccsccscsscscscscsccssssssssssssssss" />
  <path
     id="text12"
     style="font-size:5.33333px;line-height:0.95;font-family:'Franklin Gothic Book';-inkscape-font-specification:'Franklin Gothic Book, ';text-align:justify;white-space:pre;display:none;fill:#0158c9;stroke-width:2.19772;stroke-linecap:square;stroke-linejoin:round;stroke-dashoffset:3.77954"
     inkscape:label="Livestock"
     d="m 0.90311636,2.4354239e-4 c -0.008204,5.2045285e-4 -0.0164826,0.001864298 -0.0248051,0.003945668 -0.033287,0.00624194 -0.0616278,0.02106651 -0.0851249,0.04397025 -0.023496,0.02498207 -0.0380973,0.0553661 -0.0439719,0.09075919 -0.005871,0.0416376 -0.00902,0.0822078 -0.00902,0.12176382 0,0.18528813 0.0549613,0.34830509 0.16461298,0.48987386 L 0.243537,1.2190091 C 0.16717244,1.2752201 0.10790792,1.3461743 0.06483047,1.4315321 0.02175266,1.5168881 0,1.6087792 0,1.7066281 0,1.8128044 0.01860741,1.915617 0.05581054,2.0155475 c 0.03720313,0.097849 0.09130373,0.1851004 0.16179424,0.2621304 0.0724485,0.074948 0.15432648,0.1336795 0.2463557,0.1753173 0.0920292,0.041637 0.1890721,0.06331 0.29089138,0.065392 H 1.092534 l 0.1234597,0.721563 0.1437545,0.8743319 C 1.3812856,4.2454407 1.43052,4.3630769 1.5068851,4.4671717 1.5812914,4.571267 1.6751884,4.6503706 1.7887566,4.7044984 V 6.068704 c 0,0.037473 0.00658,0.073968 0.020295,0.109362 0.013706,0.03331 0.032313,0.063694 0.055811,0.090759 0.025455,0.027074 0.05522,0.04671 0.088508,0.05919 C 1.9846991,6.342579 2.0179065,6.35 2.0531515,6.35 H 2.369975 c 0.035247,0 0.069879,-0.00743 0.1031656,-0.021985 0.031328,-0.012479 0.059669,-0.032114 0.085125,-0.05919 0.025455,-0.027072 0.044923,-0.057456 0.058629,-0.090759 0.011748,-0.035391 0.017476,-0.071887 0.017476,-0.109362 V 5.5878498 l 0.070468,-0.034388 C 2.7890347,5.5055767 2.861743,5.4412971 2.9224432,5.3601056 l 0.023678,0.084558 -0.1499557,0.5338441 c -0.011748,0.041637 -0.014891,0.084981 -0.00903,0.1307834 0.00784,0.043719 0.024718,0.08355 0.050174,0.1189452 0.025454,0.035391 0.056943,0.06374 0.094146,0.084558 0.037203,0.020819 0.076998,0.029709 0.1200772,0.027622 h 0.3111862 c 0.058744,0 0.1119832,-0.017599 0.1589755,-0.05299 0.046992,-0.037473 0.079341,-0.086191 0.096964,-0.1465675 0.015657,0.060378 0.046581,0.1090957 0.093581,0.1465675 0.046992,0.037473 0.1002313,0.056372 0.1589755,0.056372 H 4.185223 c 0.058744,0 0.1119832,-0.018898 0.1589756,-0.056372 0.046995,-0.037473 0.079341,-0.086191 0.096963,-0.1465675 L 4.6790633,5.2445434 c 0.074407,0.047886 0.1537049,0.08308 0.2378995,0.10598 l 0.1640492,0.043971 v 0.6680098 c 0,0.037473 0.00717,0.073232 0.020858,0.106544 0.011737,0.035391 0.030345,0.066511 0.05581,0.093578 0.025463,0.024988 0.053802,0.044624 0.085125,0.05919 0.033287,0.014564 0.067353,0.021985 0.102601,0.021985 h 0.3173873 c 0.035243,0 0.069312,-0.00743 0.102601,-0.021985 0.031327,-0.014564 0.059668,-0.0342 0.085125,-0.05919 0.025463,-0.027072 0.044071,-0.058193 0.05581,-0.093578 0.013698,-0.03331 0.020858,-0.069067 0.020858,-0.106544 V 4.9948149 c 0.00195,0.124913 0.044038,0.2310623 0.1262784,0.3185025 0.08224,0.08744 0.1810032,0.1313471 0.2965288,0.1313471 V 2.6745377 c 0,-0.1707151 -0.030625,-0.3342956 -0.091326,-0.4904376 C 6.197988,2.0279583 6.1112294,1.8893871 5.9976618,1.7686375 5.8860522,1.6478876 5.7558027,1.5552615 5.6069879,1.4907229 5.4601341,1.4241025 5.3064088,1.3909441 5.1458462,1.3909441 H 4.3498411 c -0.035243,0 -0.069312,-0.00741 -0.1026011,-0.021985 C 4.2139531,1.3523051 4.1841858,1.3306331 4.1587322,1.3035671 4.0608283,1.1869815 3.9443174,1.0971292 3.8092115,1.0346723 3.6741057,0.97221544 3.5332611,0.94109452 3.3864043,0.94109452 H 3.0312462 L 2.946121,0.78832601 C 2.8580079,0.62802019 2.7383516,0.50093536 2.5875805,0.40725037 2.434851,0.31356538 2.2713918,0.26688375 2.097124,0.26688375 H 1.9060151 c -0.1566454,0 -0.3063644,0.0351952 -0.4493031,0.10597962 C 1.370557,0.36662122 1.2912608,0.33753758 1.2188124,0.28548656 1.1463639,0.23552098 1.0888208,0.17067823 1.0457433,0.0915664 1.030079,0.05825582 1.0066052,0.03381 0.97527539,0.01715518 0.95177887,0.00466416 0.92771449,-0.00131782 0.90311636,2.4354239e-4 Z M 0.96061817,0.3446773 c 0.0646153,0.0791115 0.14162703,0.14061684 0.23169843,0.18433688 0.090071,0.0458019 0.1853926,0.0708114 0.285254,0.074975 h 0.4284446 c 0.029372,0 0.054269,0.0114868 0.07385,0.034387 0.021537,0.0208183 0.032134,0.0465648 0.032134,0.0777936 0,0.0312279 -0.010592,0.0582748 -0.032134,0.0811759 -0.019581,0.0208186 -0.044478,0.0315684 -0.07385,0.0315684 H 1.4922279 c -0.1507711,0 -0.2793008,-0.057431 -0.3850364,-0.17193526 C 1.0249524,0.5695392 0.97628245,0.46542703 0.96061817,0.3446773 Z m 1.09817133,0.6685735 0.693404,0.7367839 c -0.090071,0.062456 -0.1888355,0.093578 -0.2965288,0.093578 -0.1507714,0 -0.2801618,-0.056866 -0.3878551,-0.1713714 C 1.9601172,1.5577374 1.9060151,1.4191658 1.9060151,1.2567785 c 0,-0.070784 0.012881,-0.1397018 0.038334,-0.206322 z M 1.2554558,1.136142 c 0.00171,-9.74e-5 0.00336,0 0.00507,0 0.013706,0 0.027448,0.00334 0.041154,0.00959 0.011748,0.00625 0.022348,0.013098 0.032134,0.021422 0.00979,0.010403 0.017797,0.023197 0.023677,0.037769 0.00589,0.014573 0.00903,0.028833 0.00903,0.043407 v 0.1409303 c 0,0.029145 -0.011159,0.054892 -0.032696,0.077793 -0.01958,0.0229 -0.043915,0.034388 -0.073287,0.034388 -0.029371,0 -0.054568,-0.011487 -0.076105,-0.034388 -0.01958,-0.022902 -0.029879,-0.048648 -0.029879,-0.077793 V 1.2483226 c 0,-0.014573 0.00314,-0.028833 0.00903,-0.043407 0.00391,-0.014575 0.011072,-0.027362 0.020858,-0.037769 0.00979,-0.00833 0.021245,-0.015171 0.034951,-0.021422 0.011994,-0.00547 0.024088,-0.0089 0.036079,-0.00959 z M 0.39743884,1.6310894 c 0.0274123,0 0.0517472,0.011487 0.0732866,0.034388 0.0215381,0.0229 0.0321334,0.04921 0.0321334,0.078357 v 0.1245825 c 0,0.031228 -0.010596,0.058275 -0.0321334,0.081176 -0.0215381,0.020819 -0.0458733,0.031568 -0.0732866,0.031568 -0.0293709,0 -0.0551303,-0.010745 -0.076669,-0.031568 -0.0215381,-0.0229 -0.0321334,-0.049947 -0.0321334,-0.081176 V 1.7438337 c 0,-0.029145 0.010596,-0.055457 0.0321334,-0.078357 0.0215381,-0.0229 0.0472976,-0.034388 0.076669,-0.034387 z M 3.6305049,4.76989 H 3.9416911 L 3.7798969,5.3758905 c -0.00195,-0.03331 -0.0068,-0.06573 -0.014658,-0.096961 z" />
  <path
     d="m 3.3081633,0.63140686 h 0.00282 C 3.352681,0.58718196 3.3801546,0.53391156 3.3934186,0.47159543 3.4066815,0.41128913 3.4028842,0.35098296 3.3820497,0.29067679 3.3631057,0.23238056 3.3299476,0.18413565 3.2825803,0.14594176 3.2371069,0.10573784 3.1850029,0.08262039 3.1262666,0.0765894 L 2.4697542,0.00120687 C 2.4223859,-0.00281499 2.3769132,0.00321511 2.3333348,0.01929867 2.2897566,0.03538008 2.2518626,0.06151259 2.2196524,0.09769641 L 0.77019923,1.6324897 c -0.007579,0.00804 -0.0132629,0.016082 -0.0170525,0.024124 -0.0947354,-0.014072 -0.18757621,-0.00503 -0.27852234,0.027137 -0.090946,0.032163 -0.17052385,0.084429 -0.23873339,0.1567962 L 0.07389337,2.0124193 C 0.02463101,2.0646853 0,2.1280062 0,2.2023839 0,2.2787719 0.02463113,2.3430981 0.07389337,2.3953638 L 1.372717,3.7733608 c 0.00569,0.00603 0.012311,0.012061 0.019894,0.018092 C 1.218298,3.8577898 1.0648266,3.9613151 0.93219688,4.1020298 0.77304133,4.2708872 0.66599023,4.4668824 0.61104363,4.6900154 0.55799141,4.9111383 0.5551503,5.1292456 0.60252051,5.3443379 h 0.002839 c 0.0189473,0.08644 0.060631,0.1527757 0.12505089,0.1990105 0.0644204,0.048245 0.13547202,0.070358 0.2131549,0.066337 0.0776813,-0.00201 0.146839,-0.036182 0.2074698,-0.1025218 L 1.614293,5.018684 1.8246057,5.241817 1.3613492,5.7302974 c -0.058736,0.064327 -0.090946,0.137699 -0.096631,0.2201176 -0.00378,0.082418 0.016105,0.1578014 0.059683,0.2261484 0.043579,0.068348 0.1070509,0.1135773 0.1904184,0.135689 0.1989447,0.052266 0.4016785,0.050255 0.6082019,-0.00603 0.206523,-0.056287 0.3893626,-0.1658434 0.5485183,-0.3286701 v 0 C 2.8288012,5.816736 2.9368,5.6297874 2.9955361,5.4167054 3.0542721,5.2036235 3.0646929,4.9915465 3.0267988,4.7804748 L 3.3081633,4.4789436 4.7689847,6.0318287 c 0.1610503,0.1688575 0.3543107,0.2532862 0.5797811,0.2532862 0.2273652,0 0.4206256,-0.084429 0.5797814,-0.2532862 C 6.0895975,5.8609611 6.1701225,5.65592 6.1701225,5.4167054 c 0,-0.2412249 -0.080525,-0.446266 -0.2415753,-0.6151235 L 4.4620416,3.2456815 4.8570888,2.823538 C 5.0541384,2.867762 5.2530831,2.859722 5.4539223,2.799415 5.6566564,2.7391091 5.8347591,2.6275427 5.9882305,2.4647159 6.1473861,2.2958585 6.2534898,2.1008685 6.3065417,1.8797456 6.3614888,1.6566127 6.364331,1.4375001 6.3150683,1.2224078 v 0 C 6.2961208,1.1359689 6.2544372,1.0696322 6.190017,1.0233973 6.125597,0.97515235 6.0545454,0.95303998 5.9768623,0.95706044 5.8991792,0.95907072 5.8300221,0.99324415 5.7693915,1.0595811 L 5.3061348,1.5480613 5.0958221,1.3279436 5.5590787,0.83644802 C 5.6178146,0.7741316 5.6490775,0.70176411 5.6528674,0.61934568 5.6566563,0.53491691 5.6367617,0.45852902 5.5931834,0.39018199 5.5514998,0.32183494 5.4889744,0.27660529 5.4056071,0.25449303 5.2047679,0.20423787 5.0010865,0.20725318 4.7945633,0.26353896 4.5899344,0.31781452 4.4080424,0.42636569 4.2488867,0.58919251 h -0.00283 C 4.0887857,0.75201933 3.9807854,0.94097881 3.9220493,1.1560711 3.8633132,1.3711632 3.8547871,1.5852503 3.8964707,1.7983322 L 3.4985815,2.2234911 3.2200592,1.9279904 C 3.24848,1.8656739 3.2570065,1.8003425 3.2456366,1.7319954 3.234268,1.6636475 3.2058483,1.605352 3.1603745,1.5571072 L 2.799433,1.1741628 Z M 1.7905006,3.7160699 1.8956565,3.6014885 C 2.0074448,3.482886 2.0671282,3.3401612 2.074707,3.173314 L 2.3447032,3.4567531 2.074707,3.7462231 C 1.9799716,3.7241109 1.8852361,3.7140598 1.7905006,3.7160699 Z M 4.5330931,0.90278492 C 4.6183554,0.81433572 4.7149855,0.75000909 4.8229839,0.70980494 4.9309823,0.66759054 5.0399281,0.64849354 5.1498213,0.65251404 L 4.7462481,1.0837036 c -0.062527,0.066337 -0.093787,0.1477501 -0.093787,0.24424 0,0.094479 0.031262,0.1748882 0.093787,0.241225 l 0.3296797,0.349776 c 0.06442,0.068348 0.1411561,0.1025218 0.230207,0.1025218 0.089053,0 0.1657873,-0.034173 0.2302074,-0.1025218 L 5.9399154,1.4907705 C 5.9456027,1.6113829 5.9276031,1.7299852 5.8859165,1.8465771 5.8461275,1.9631692 5.783602,2.0666948 5.6983402,2.1571542 5.5846575,2.2777666 5.4520275,2.3571699 5.3004508,2.3953638 5.1488739,2.4315475 5.0010866,2.4245117 4.8570888,2.3742568 L 4.7377219,2.3350576 2.5692263,4.6508163 2.6033311,4.7744441 C 2.6469094,4.92923 2.6506982,5.0870313 2.6146998,5.2478479 2.5787002,5.4086645 2.5029122,5.548374 2.3873349,5.6669762 2.3001782,5.7534152 2.2026006,5.8167366 2.0946022,5.8569408 1.988498,5.8991548 1.8795526,5.9182508 1.7677647,5.9142318 L 2.1713373,5.4830422 c 0.06442,-0.066337 0.096631,-0.146745 0.096631,-0.2412249 0,-0.09649 -0.032209,-0.1779034 -0.096631,-0.2442403 L 1.8416577,4.6478011 C 1.779132,4.5794531 1.7023969,4.5452794 1.6114505,4.5452794 c -0.089052,0 -0.1648398,0.034174 -0.2273652,0.1025217 L 0.98051202,5.0759753 C 0.97482788,4.9553628 0.99188031,4.8367605 1.0316692,4.7201685 1.0714582,4.6035764 1.1349309,4.5000508 1.2220875,4.4095915 1.3376648,4.2869688 1.4721892,4.2075656 1.6256608,4.171382 1.7791323,4.1351981 1.9278669,4.1432391 2.071865,4.1955045 L 2.1912317,4.2377187 4.3540432,1.9249753 4.3170965,1.8013475 C 4.273518,1.6465616 4.2697286,1.4877553 4.3057279,1.3249284 4.3417275,1.1621017 4.417516,1.0213872 4.5330931,0.90278492 Z"
     id="text13"
     style="font-size:5.33333px;line-height:0.95;font-family:'Franklin Gothic Book';-inkscape-font-specification:'Franklin Gothic Book, ';text-align:justify;white-space:pre;display:none;fill:#0158c9;stroke-width:2.12434;stroke-linecap:square;stroke-linejoin:round;stroke-dashoffset:3.77954"
     inkscape:label="Maintenance"
     aria-label=""
     sodipodi:nodetypes="cccccccccccsscscccsccccccccccsccssscccsssccccscsscccccsccccccscccscccccccccccccsccscccscccccsccccsccsccscsccccsc" />
</svg>
